ffmpeg started on 2016-11-26 at 16:43:38
Report written to "Output/NVENCh264/results/ffmpeg/crowd_run_2160p50ll7000k.log"
Command line:
Tools/ffmpeg/ffmpeg -benchmark -y -i Input/y4m/crowd_run_2160p50.y4m -c:v h264_nvenc -preset ll -b:v 7000k -an Output/NVENCh264/encoded/crowd_run_2160p50ll7000k.mkv
ffmpeg version N-82227-gdb23fde Copyright (c) 2000-2016 the FFmpeg developers
  built with gcc 5.4.0 (Ubuntu 5.4.0-6ubuntu1~16.04.2) 20160609
  configuration: --prefix=/home/jaroslav/ffmpeg_build --pkg-config-flags=--static --extra-cflags=-I/home/jaroslav/ffmpeg_build/include --extra-ldflags=-L/home/jaroslav/ffmpeg_build/lib --bindir=/home/jaroslav/bin --enable-gpl --enable-libass --enable-libfdk-aac --enable-libfreetype --enable-libmp3lame --enable-libopus --enable-libtheora --enable-libvorbis --enable-libvpx --enable-libx264 --enable-libx265 --enable-nvenc --enable-libmfx --enable-libxvid --enable-libgsm --enable-libopencore-amrnb --enable-version3 --enable-nonfree
  libavutil      55. 35.100 / 55. 35.100
  libavcodec     57. 66.101 / 57. 66.101
  libavformat    57. 57.100 / 57. 57.100
  libavdevice    57.  2.100 / 57.  2.100
  libavfilter     6. 66.100 /  6. 66.100
  libswscale      4.  3.100 /  4.  3.100
  libswresample   2.  4.100 /  2.  4.100
  libpostproc    54.  2.100 / 54.  2.100
Input #0, yuv4mpegpipe, from 'Input/y4m/crowd_run_2160p50.y4m':
  Duration: 00:00:10.00, start: 0.000000, bitrate: 4976642 kb/s
    Stream #0:0: Video: rawvideo (I420 / 0x30323449), yuv420p(progressive), 3840x2160, SAR 1:1 DAR 16:9, 50 fps, 50 tbr, 50 tbn, 50 tbc
[h264_nvenc @ 0x2a701c0] The variable bitrate rate-control requires the 'qmin' and/or 'qmax' option set.
Output #0, matroska, to 'Output/NVENCh264/encoded/crowd_run_2160p50ll7000k.mkv':
  Metadata:
    encoder         : Lavf57.57.100
    Stream #0:0: Video: h264 (h264_nvenc) (Main) (H264 / 0x34363248), yuv420p, 3840x2160 [SAR 1:1 DAR 16:9], q=-1--1, 7000 kb/s, 50 fps, 1k tbn, 50 tbc
    Metadata:
      encoder         : Lavc57.66.101 h264_nvenc
    Side data:
      cpb: bitrate max/min/avg: 0/0/7000000 buffer size: 14000000 vbv_delay: -1
Stream mapping:
  Stream #0:0 -> #0:0 (rawvideo (native) -> h264 (h264_nvenc))
Press [q] to stop, [?] for help
frame=   13 fps=0.0 q=0.0 size=       0kB time=00:00:00.00 bitrate=N/A speed=   0x    frame=   29 fps= 29 q=0.0 size=       0kB time=00:00:00.00 bitrate=N/A speed=   0x    frame=   36 fps= 19 q=47.0 size=       1kB time=00:00:00.10 bitrate=  59.2kbits/s speed=0.0539x    frame=   53 fps= 22 q=46.0 size=       1kB time=00:00:00.44 bitrate=  13.6kbits/s speed=0.185x    frame=   71 fps= 25 q=47.0 size=       1kB time=00:00:00.80 bitrate=   7.5kbits/s speed=0.277x    frame=   89 fps= 17 q=45.0 size=       1kB time=00:00:01.16 bitrate=   5.1kbits/s speed=0.222x    frame=   90 fps= 10 q=45.0 size=       1kB time=00:00:01.18 bitrate=   5.1kbits/s speed=0.135x    frame=   91 fps=8.3 q=45.0 size=       1kB time=00:00:01.20 bitrate=   5.0kbits/s speed=0.11x    frame=  108 fps=9.5 q=46.0 size=       1kB time=00:00:01.54 bitrate=   3.9kbits/s speed=0.135x    frame=  126 fps= 11 q=47.0 size=       1kB time=00:00:01.90 bitrate=   3.1kbits/s speed=0.159x    frame=  144 fps= 12 q=46.0 size=       1kB time=00:00:02.26 bitrate=   2.6kbits/s speed=0.182x    frame=  152 fps= 12 q=46.0 size=       1kB time=00:00:02.42 bitrate=   2.5kbits/s speed=0.186x    frame=  157 fps= 12 q=46.0 size=       1kB time=00:00:02.52 bitrate=   2.4kbits/s speed=0.186x    frame=  170 fps= 12 q=46.0 size=       1kB time=00:00:02.78 bitrate=   2.1kbits/s speed=0.195x    frame=  173 fps= 12 q=47.0 size=       1kB time=00:00:02.84 bitrate=   2.1kbits/s speed=0.189x    frame=  190 fps= 12 q=47.0 size=       1kB time=00:00:03.18 bitrate=   1.9kbits/s speed=0.204x    frame=  207 fps= 13 q=46.0 size=       1kB time=00:00:03.52 bitrate=   1.7kbits/s speed=0.219x    frame=  224 fps= 14 q=45.0 size=       1kB time=00:00:03.86 bitrate=   1.5kbits/s speed=0.233x    frame=  242 fps= 14 q=45.0 size=       1kB time=00:00:04.22 bitrate=   1.4kbits/s speed=0.247x    frame=  259 fps= 15 q=46.0 size=       1kB time=00:00:04.56 bitrate=   1.3kbits/s speed=0.259x    frame=  277 fps= 15 q=46.0 size=       1kB time=00:00:04.92 bitrate=   1.2kbits/s speed=0.272x    frame=  283 fps= 15 q=46.0 size=    4267kB time=00:00:05.04 bitrate=6934.9kbits/s speed=0.271x    frame=  288 fps= 15 q=48.0 size=    4267kB time=00:00:05.14 bitrate=6800.0kbits/s speed=0.268x    frame=  306 fps= 16 q=45.0 size=    4267kB time=00:00:05.50 bitrate=6355.0kbits/s speed=0.28x    frame=  319 fps= 16 q=46.0 size=    4267kB time=00:00:05.76 bitrate=6068.2kbits/s speed=0.282x    frame=  336 fps= 16 q=46.0 size=    4267kB time=00:00:06.10 bitrate=5730.0kbits/s speed=0.292x    frame=  354 fps= 17 q=47.0 size=    4267kB time=00:00:06.46 bitrate=5410.7kbits/s speed=0.302x    frame=  372 fps= 17 q=45.0 size=    4267kB time=00:00:06.82 bitrate=5125.2kbits/s speed=0.311x    frame=  390 fps= 17 q=45.0 size=    4267kB time=00:00:07.18 bitrate=4868.2kbits/s speed=0.32x    frame=  402 fps= 17 q=46.0 size=    4267kB time=00:00:07.42 bitrate=4710.8kbits/s speed=0.321x    frame=  409 fps= 17 q=46.0 size=    4267kB time=00:00:07.56 bitrate=4623.6kbits/s speed=0.315x    frame=  414 fps= 17 q=47.0 size=    4267kB time=00:00:07.66 bitrate=4563.2kbits/s speed=0.313x    frame=  432 fps= 17 q=47.0 size=    4267kB time=00:00:08.02 bitrate=4358.4kbits/s speed=0.321x    frame=  439 fps= 17 q=47.0 size=    4267kB time=00:00:08.16 bitrate=4283.6kbits/s speed=0.32x    frame=  440 fps= 17 q=47.0 size=    4267kB time=00:00:08.18 bitrate=4273.2kbits/s speed=0.313x    frame=  445 fps= 17 q=47.0 size=    4267kB time=00:00:08.28 bitrate=4221.6kbits/s speed=0.31x    frame=  450 fps= 17 q=47.0 size=    4267kB time=00:00:08.38 bitrate=4171.2kbits/s speed=0.308x    frame=  453 fps= 16 q=47.0 size=    4267kB time=00:00:08.44 bitrate=4141.5kbits/s speed=0.302x    frame=  458 fps= 16 q=47.0 size=    4267kB time=00:00:08.54 bitrate=4093.0kbits/s speed=0.297x    frame=  465 fps= 16 q=47.0 size=    4267kB time=00:00:08.68 bitrate=4027.0kbits/s speed=0.296x    frame=  469 fps= 16 q=47.0 size=    4267kB time=00:00:08.76 bitrate=3990.3kbits/s speed=0.294x    frame=  475 fps= 16 q=47.0 size=    4267kB time=00:00:08.88 bitrate=3936.3kbits/s speed=0.293x    frame=  481 fps= 16 q=47.0 size=    4267kB time=00:00:09.00 bitrate=3883.9kbits/s speed=0.292x    frame=  487 fps= 16 q=47.0 size=    4267kB time=00:00:09.12 bitrate=3832.8kbits/s speed=0.291x    frame=  500 fps= 16 q=47.0 Lsize=    8557kB time=00:00:09.98 bitrate=7023.2kbits/s speed=0.314x    
video:8552kB audio:0kB subtitle:0kB other streams:0kB global headers:0kB muxing overhead: 0.053177%
bench: utime=1.196s
bench: maxrss=1408772kB
